<?xml version="1.0" encoding="utf-8"?>
<!-- Generator: Adobe Illustrator 25.0.0, SVG Export Plug-In . SVG Version: 6.00 Build 0)  -->
<svg version="1.1" id="Layer_1" xmlns="http://www.w3.org/2000/svg" xmlns:xlink="http://www.w3.org/1999/xlink" x="0px" y="0px"
	 viewBox="0 0 100 66" style="enable-background:new 0 0 100 66;" xml:space="preserve">
<path d="M98.5,30.5C96.5,28.5,81,18,62,18c-2.1,0-4.2,0.1-6.2,0.3L39,9c0,4.5,1.3,9,2.4,12.1C31.7,23.7,23.3,27,16,27L0,17
	c0,8,4,16,4,16s-4,8-4,16l16-10c7.3,0,15.7,3.3,25.4,5.9C40.3,48,39,52.5,39,57l16.8-9.3c2,0.2,4.1,0.3,6.2,0.3
	c19,0,34.5-10.5,36.5-12.5S100.5,32.5,98.5,30.5z M85.5,33c-1.4,0-2.5-1.1-2.5-2.5s1.1-2.5,2.5-2.5s2.5,1.1,2.5,2.5
	C88,31.9,86.9,33,85.5,33z"/>
</svg>
