<?xml version="1.0" encoding="utf-8"?>
<!-- Generator: Adobe Illustrator 25.0.0, SVG Export Plug-In . SVG Version: 6.00 Build 0)  -->
<svg version="1.1" id="Layer_1" xmlns="http://www.w3.org/2000/svg" xmlns:xlink="http://www.w3.org/1999/xlink" x="0px" y="0px"
	 viewBox="0 0 100 125" style="enable-background:new 0 0 100 125;" xml:space="preserve">
<style type="text/css">
	.st0{fill:none;}
	.st1{font-family:'MyriadPro-Regular';}
	.st2{font-size:20px;}
</style>
<path d="M76.6,70.5h-0.8c-1.7-1.9-2.7-4.3-2.8-6.9c-0.1-2.9,0.8-5.7,2.5-7.8h0.6c0.6,0,1-0.4,1-1s-0.4-1-1-1h-64
	c-5.2,0-9.4,4.2-9.4,9.4s4.2,9.4,9.4,9.4l64.4,0c0.6,0,1-0.4,1-1S77.1,70.5,76.6,70.5z M4.8,63.2c0-4.1,3.3-7.4,7.4-7.4h60.9
	c-1.5,2.3-2.2,5-2.1,7.9c0.1,2.4,0.9,4.8,2.3,6.8l-61.1,0C8.1,70.5,4.8,67.2,4.8,63.2z M62.1,59.5H12.2c-0.6,0-1,0.4-1,1s0.4,1,1,1
	h49.9c0.6,0,1-0.4,1-1S62.6,59.5,62.1,59.5z M26.3,65.1H12.2c-0.6,0-1,0.4-1,1s0.4,1,1,1h14.2c0.6,0,1-0.4,1-1S26.9,65.1,26.3,65.1z
	 M49.2,65.1H31.4c-0.6,0-1,0.4-1,1s0.4,1,1,1h17.9c0.6,0,1-0.4,1-1S49.8,65.1,49.2,65.1z M15.6,33.8l59,0l0,0h0h0.9c0.6,0,1-0.4,1-1
	s-0.4-1-1-1H75c-1.2-1.4-1.9-3.1-1.9-4.9c-0.1-2.1,0.5-4.1,1.8-5.6h0.3c0.6,0,1-0.4,1-1s-0.4-1-1-1H15.6c-4,0-7.3,3.3-7.3,7.3
	C8.3,30.5,11.5,33.8,15.6,33.8z M15.6,21.3h56.8c-1,1.7-1.4,3.7-1.3,5.7c0.1,1.7,0.6,3.4,1.5,4.8l-57,0c-2.9,0-5.3-2.4-5.3-5.3
	S12.6,21.3,15.6,21.3z M25.6,5.9H26c1.1,1.3,1.7,2.8,1.8,4.5c0.1,1.9-0.5,3.7-1.6,5.1h-0.3c-0.6,0-1,0.4-1,1s0.4,1,1,1h54.9
	c3.7,0,6.8-3,6.8-6.8s-3-6.8-6.8-6.8l-55.2,0c-0.6,0-1,0.4-1,1C24.6,5.4,25,5.9,25.6,5.9z M85.5,10.7c0,2.6-2.1,4.8-4.8,4.8H28.5
	c0.9-1.5,1.3-3.3,1.2-5.2c-0.1-1.6-0.5-3-1.3-4.4l52.3,0C83.4,5.9,85.5,8,85.5,10.7z M97,43.8c0-2.2-0.8-4.2-2.4-5.8
	c-1.5-1.5-3.6-2.4-5.8-2.4l-65.1,0c-0.6,0-1,0.4-1,1s0.4,1,1,1h0.6c1.4,1.6,2.2,3.7,2.3,5.8c0.1,2.5-0.6,4.8-2.1,6.6h-0.5
	c-0.6,0-1,0.4-1,1s0.4,1,1,1H25c0,0,0,0,0,0c0,0,0,0,0,0h56.7v12.2l4.1-4l4.1,4V51.9C93.9,51.3,97,47.9,97,43.8z M85.8,57.4l-2.1,2
	V44.3h4.1v15.1L85.8,57.4z M89.9,49.8v-5.5c0.5,0,0.9-0.5,0.9-1c0-0.6-0.4-1-1-1H72.5c-0.6,0-1,0.4-1,1s0.4,1,1,1h9.2v5.6H27
	c1.2-2,1.8-4.3,1.7-6.7c-0.1-2-0.7-4-1.8-5.7l62,0c1.7,0,3.2,0.6,4.4,1.8c1.2,1.2,1.8,2.7,1.8,4.4C95,46.8,92.8,49.3,89.9,49.8z
	 M68.8,42.3H57.5c-0.6,0-1,0.4-1,1s0.4,1,1,1h11.3c0.6,0,1-0.4,1-1S69.4,42.3,68.8,42.3z M65.7,13h13.8c0.6,0,1-0.4,1-1s-0.4-1-1-1
	H65.7c-0.6,0-1,0.4-1,1S65.1,13,65.7,13z"/>
<rect y="82.2" class="st0" width="100" height="42.8"/>
<text transform="matrix(1 0 0 1 6.1606 96.4031)"><tspan x="0" y="0" class="st1 st2">HS English </tspan><tspan x="3" y="24" class="st1 st2">Curriculm</tspan></text>
</svg>
