<?xml version="1.0" encoding="utf-8"?>
<!-- Generator: Adobe Illustrator 25.0.0, SVG Export Plug-In . SVG Version: 6.00 Build 0)  -->
<svg version="1.1" id="Layer_1" xmlns="http://www.w3.org/2000/svg" xmlns:xlink="http://www.w3.org/1999/xlink" x="0px" y="0px"
	 viewBox="0 0 100 125" style="enable-background:new 0 0 100 125;" xml:space="preserve">
<style type="text/css">
	.st0{fill:none;}
	.st1{font-family:'MyriadPro-Regular';}
	.st2{font-size:18px;}
</style>
<g>
	<path class="st0" d="M65.4,13c0-1.1-0.9-1.9-1.9-1.9h-7.6c-1.9,0-3.6-1.3-4.1-3.2c-0.6-2.3-2.7-4-5.1-4c-2.4,0-4.4,1.6-5.1,3.9
		c-0.5,2-2.3,3.4-4.3,3.4h-7.4c-1.1,0-1.9,0.9-1.9,1.9v4.5h37.4L65.4,13L65.4,13z M46.7,11c-1.2,0-2.2-1-2.2-2.2s1-2.2,2.2-2.2
		s2.2,1,2.2,2.2S47.9,11,46.7,11z"/>
	<rect x="26" y="45" width="31.6" height="4.1"/>
	<rect x="26" y="54.3" width="41.4" height="4.1"/>
	<rect x="26" y="63.6" width="31.6" height="4.1"/>
	<polygon points="86.6,32.1 85.1,34.8 84.4,36 90.1,39.3 90.8,38.1 92.3,35.4 	"/>
	<polygon points="62.5,73 62.5,79.8 68.4,76.3 88.6,41.4 82.9,38.1 	"/>
	<path d="M72.3,85.5H59.7h-0.8H21.2V17.3h2.9v4.1h45.4v-4.1h2.9v31.2l5.7-10.2V17.4c0-3.2-2.2-5.8-5.5-5.8h-3.2
		c-0.6-2.7-3-4.6-5.8-4.6H56c-0.1,0-0.2-0.1-0.2-0.2c-1-4.1-4.7-7-9-7c-4.2,0-7.8,2.8-8.9,6.9c-0.1,0.2-0.2,0.4-0.4,0.4h-7.4
		c-2.8,0-5.2,2-5.8,4.6h-3.2c-3.2,0-5.4,2.6-5.4,5.8v68.2c0,3.2,2.2,5.5,5.4,5.5h51.6c3.2,0,5.5-2.2,5.5-5.5V67l-5.7,10.2v8.3H72.3z
		 M28,13c0-1.1,0.9-1.9,1.9-1.9h7.4c2,0,3.7-1.4,4.3-3.4c0.6-2.3,2.7-3.9,5.1-3.9c2.4,0,4.5,1.6,5.1,4c0.5,1.9,2.1,3.2,4.1,3.2h7.6
		c1.1,0,1.9,0.9,1.9,1.9v4.5H28V13z"/>
	<rect x="26" y="26.3" width="31.6" height="4.1"/>
	<rect x="26" y="35.6" width="41.4" height="4.1"/>
	<circle cx="46.7" cy="8.8" r="2.2"/>
	<circle cx="30" cy="76.6" r="4"/>
	<circle cx="42.7" cy="76.6" r="4"/>
</g>
<rect x="0.4" y="91.2" class="st0" width="94.8" height="33.8"/>
<text transform="matrix(1 0 0 1 11.2812 103.9805)"><tspan x="0" y="0" class="st1 st2">Insurance </tspan><tspan x="14.3" y="17" class="st1 st2">Policy</tspan></text>
</svg>
