<?xml version="1.0" encoding="utf-8"?>
<!-- Generator: Adobe Illustrator 25.0.0, SVG Export Plug-In . SVG Version: 6.00 Build 0)  -->
<svg version="1.1" id="Layer_1" xmlns="http://www.w3.org/2000/svg" xmlns:xlink="http://www.w3.org/1999/xlink" x="0px" y="0px"
	 viewBox="0 0 500 450" style="enable-background:new 0 0 500 450;" xml:space="preserve">
<style type="text/css">
	.st0{fill:none;}
	.st1{font-family:'HelveticaNeue';}
	.st2{font-size:18px;}
	.st3{font-size:20px;}
	.st4{fill:none;stroke:#999999;stroke-miterlimit:10;}
</style>
<rect x="145" class="st0" width="355" height="127"/>
<text transform="matrix(1 0 0 1 145 69.9259)" class="st1 st2">John loves Mary.</text>
<rect x="144.8" y="151" class="st0" width="356.2" height="124"/>
<text transform="matrix(1 0 0 1 144.7778 219.4258)" class="st1 st2">John has a profound affection for Mary.</text>
<rect x="144" y="299" class="st0" width="356" height="151"/>
<text transform="matrix(1 0 0 1 144 311.8516)"><tspan x="0" y="0" class="st1 st2">Even though John is not normally given to a </tspan><tspan x="0" y="24" class="st1 st2">display of his deeper emotions, he allegedly </tspan><tspan x="0" y="48" class="st1 st2">has developed a profound affection for </tspan><tspan x="0" y="72" class="st1 st2">Mary, as compared to the more equable </tspan><tspan x="0" y="96" class="st1 st2">feelings he seems to have for Lucy, Fran </tspan><tspan x="0" y="120" class="st1 st2">and, to a lesser extent, Sue.</tspan></text>
<rect y="40" class="st0" width="145" height="47.2"/>
<text transform="matrix(1 0 0 1 0 70.7275)" class="st1 st3">Very Easy</text>
<rect x="-2" y="191" class="st0" width="148.2" height="44"/>
<text transform="matrix(1 0 0 1 -2 220.1577)" class="st1 st3">Plain English</text>
<rect y="347" class="st0" width="113" height="48.5"/>
<text transform="matrix(1 0 0 1 0 378.373)" class="st1 st3">Very Difficult</text>
<line class="st4" x1="129" y1="450" x2="129" y2="0"/>
<line class="st4" x1="0.5" y1="126.5" x2="500.5" y2="126.5"/>
<line class="st4" x1="0.5" y1="274.5" x2="501.5" y2="274.5"/>
</svg>
