<?xml version="1.0" encoding="utf-8"?>
<!-- Generator: Adobe Illustrator 25.0.0, SVG Export Plug-In . SVG Version: 6.00 Build 0)  -->
<svg version="1.1" xmlns="http://www.w3.org/2000/svg" xmlns:xlink="http://www.w3.org/1999/xlink" x="0px" y="0px"
	 viewBox="0 0 100 66" style="enable-background:new 0 0 100 66;" xml:space="preserve">
<g id="Layer_2">
</g>
<g id="Layer_1">
	<g>
		<g>
			<path d="M68.6,29.5C66.2,22.1,59.1,9.2,39,10.2c-20.4,1-25.7,15.7-27.1,23.7C26.6,36.5,55.5,40,68.6,29.5z"/>
		</g>
		<g>
			<path d="M95.9,23.5C91.8,17.2,81,12.1,79.8,20c-0.9,6.2-4,9.9-6.1,12c-7.8,7.5-21.2,9.8-34.2,9.8c-16.8,0-33.1-3.7-36.9-4.6
				c1.4,6.8,11,9.7,11,9.7l1.3,9.2c0.2,1,1.1,1.8,2.1,1.8h7c1.2,0,2.1-0.9,2.1-2.1c0-1.6,0.2-4,1.2-6.7c12.4,2.4,27.2,0,27.2,0
				l1.7,6.9c0.3,1.1,1.3,1.9,2.4,1.9h7.3c1.6,0,2.7-1.4,2.4-2.9c-0.5-2.8-0.9-6.9,0.4-8.5c6.4-2.4,16.6-14.2,20.5-12.9
				C96.8,35.9,99.6,29.3,95.9,23.5z M87.8,25.5c-1.2,0-2.1-0.9-2.1-2.1s0.9-2.1,2.1-2.1s2.1,0.9,2.1,2.1S88.9,25.5,87.8,25.5z"/>
		</g>
	</g>
</g>
</svg>
